<svg xmlns="http://www.w3.org/2000/svg" viewBox="0 0 512 512">
  <defs>
    <linearGradient id="bgGrad" x1="0%" y1="0%" x2="100%" y2="100%">
      <stop offset="0%" style="stop-color:#2563eb"/>
      <stop offset="100%" style="stop-color:#4f46e5"/>
    </linearGradient>
    <linearGradient id="docGrad" x1="0%" y1="0%" x2="100%" y2="100%">
      <stop offset="0%" style="stop-color:#ffffff"/>
      <stop offset="100%" style="stop-color:#f1f5f9"/>
    </linearGradient>
  </defs>
  
  <!-- Background -->
  <rect width="512" height="512" rx="96" fill="url(#bgGrad)"/>
  
  <!-- Document shadow -->
  <rect x="124" y="78" width="280" height="360" rx="16" fill="#1e40af" opacity="0.3"/>
  
  <!-- Document -->
  <rect x="116" y="70" width="280" height="360" rx="16" fill="url(#docGrad)"/>
  
  <!-- Document fold -->
  <path d="M326 70 L396 140 L326 140 Z" fill="#e2e8f0"/>
  <path d="M326 70 L396 140 L326 140 Z" fill="#cbd5e1"/>
  
  <!-- Invoice lines -->
  <rect x="156" y="170" width="120" height="12" rx="6" fill="#2563eb"/>
  <rect x="156" y="200" width="80" height="8" rx="4" fill="#94a3b8"/>
  
  <!-- Table lines -->
  <rect x="156" y="240" width="200" height="2" fill="#e2e8f0"/>
  <rect x="156" y="270" width="140" height="8" rx="4" fill="#cbd5e1"/>
  <rect x="320" y="270" width="36" height="8" rx="4" fill="#cbd5e1"/>
  <rect x="156" y="295" width="120" height="8" rx="4" fill="#cbd5e1"/>
  <rect x="320" y="295" width="36" height="8" rx="4" fill="#cbd5e1"/>
  <rect x="156" y="320" width="160" height="8" rx="4" fill="#cbd5e1"/>
  <rect x="320" y="320" width="36" height="8" rx="4" fill="#cbd5e1"/>
  
  <!-- Total section -->
  <rect x="240" y="360" width="116" height="40" rx="8" fill="#2563eb" opacity="0.1"/>
  <rect x="256" y="372" width="40" height="6" rx="3" fill="#2563eb"/>
  <rect x="306" y="370" width="36" height="10" rx="4" fill="#2563eb"/>
  
  <!-- Snap/checkmark badge -->
  <circle cx="380" cy="380" r="52" fill="#10b981"/>
  <circle cx="380" cy="380" r="44" fill="#10b981" stroke="#ffffff" stroke-width="4"/>
  <path d="M355 380 L372 397 L405 360" stroke="#ffffff" stroke-width="10" stroke-linecap="round" stroke-linejoin="round" fill="none"/>
</svg>